<mxfile host="Electron" modified="2023-12-12T21:14:41.037Z" agent="Mozilla/5.0 (Windows NT 10.0; Win64; x64) AppleWebKit/537.36 (KHTML, like Gecko) draw.io/22.1.2 Chrome/114.0.5735.289 Electron/25.9.4 Safari/537.36" etag="TodcHikkY_EnUvTY0bGa" version="22.1.2" type="device">
  <diagram name="Page-1" id="PRz9dwMdGIdX8Fq1dtlE">
    <mxGraphModel dx="1098" dy="912" grid="1" gridSize="10" guides="1" tooltips="1" connect="1" arrows="1" fold="1" page="1" pageScale="1" pageWidth="850" pageHeight="1100" math="0" shadow="0">
      <root>
        <mxCell id="0" />
        <mxCell id="1" parent="0" />
        <mxCell id="Jc5_NmkDCn1TY42F2Nc0-21" style="edgeStyle=orthogonalEdgeStyle;rounded=0;orthogonalLoop=1;jettySize=auto;html=1;entryX=0.5;entryY=0;entryDx=0;entryDy=0;" edge="1" parent="1" source="Jc5_NmkDCn1TY42F2Nc0-1" target="Jc5_NmkDCn1TY42F2Nc0-5">
          <mxGeometry relative="1" as="geometry">
            <Array as="points">
              <mxPoint x="155" y="80" />
              <mxPoint x="50" y="80" />
            </Array>
          </mxGeometry>
        </mxCell>
        <mxCell id="Jc5_NmkDCn1TY42F2Nc0-22" style="edgeStyle=orthogonalEdgeStyle;rounded=0;orthogonalLoop=1;jettySize=auto;html=1;entryX=0.5;entryY=0;entryDx=0;entryDy=0;" edge="1" parent="1" source="Jc5_NmkDCn1TY42F2Nc0-1" target="Jc5_NmkDCn1TY42F2Nc0-9">
          <mxGeometry relative="1" as="geometry">
            <Array as="points">
              <mxPoint x="155" y="80" />
              <mxPoint x="210" y="80" />
            </Array>
          </mxGeometry>
        </mxCell>
        <mxCell id="Jc5_NmkDCn1TY42F2Nc0-23" style="edgeStyle=orthogonalEdgeStyle;rounded=0;orthogonalLoop=1;jettySize=auto;html=1;entryX=0.5;entryY=0;entryDx=0;entryDy=0;" edge="1" parent="1" source="Jc5_NmkDCn1TY42F2Nc0-1" target="Jc5_NmkDCn1TY42F2Nc0-17">
          <mxGeometry relative="1" as="geometry">
            <Array as="points">
              <mxPoint x="155" y="80" />
              <mxPoint x="530" y="80" />
            </Array>
          </mxGeometry>
        </mxCell>
        <mxCell id="Jc5_NmkDCn1TY42F2Nc0-25" value="/264" style="edgeLabel;html=1;align=center;verticalAlign=middle;resizable=0;points=[];" vertex="1" connectable="0" parent="Jc5_NmkDCn1TY42F2Nc0-23">
          <mxGeometry x="-0.9339" y="3" relative="1" as="geometry">
            <mxPoint as="offset" />
          </mxGeometry>
        </mxCell>
        <mxCell id="Jc5_NmkDCn1TY42F2Nc0-26" style="edgeStyle=orthogonalEdgeStyle;rounded=0;orthogonalLoop=1;jettySize=auto;html=1;entryX=0.5;entryY=0;entryDx=0;entryDy=0;" edge="1" parent="1" source="Jc5_NmkDCn1TY42F2Nc0-1" target="Jc5_NmkDCn1TY42F2Nc0-13">
          <mxGeometry relative="1" as="geometry">
            <Array as="points">
              <mxPoint x="155" y="80" />
              <mxPoint x="690" y="80" />
            </Array>
          </mxGeometry>
        </mxCell>
        <mxCell id="Jc5_NmkDCn1TY42F2Nc0-1" value="&lt;font color=&quot;#66cc00&quot;&gt;&lt;span style=&quot;font-size: 14px;&quot;&gt;&lt;b&gt;ST&lt;/b&gt;&lt;/span&gt;&lt;/font&gt;" style="text;html=1;align=center;verticalAlign=middle;resizable=0;points=[];autosize=1;strokeColor=none;fillColor=none;" vertex="1" parent="1">
          <mxGeometry x="135" y="10" width="40" height="30" as="geometry" />
        </mxCell>
        <mxCell id="Jc5_NmkDCn1TY42F2Nc0-27" style="edgeStyle=orthogonalEdgeStyle;rounded=0;orthogonalLoop=1;jettySize=auto;html=1;entryX=0.5;entryY=0;entryDx=0;entryDy=0;" edge="1" parent="1" source="Jc5_NmkDCn1TY42F2Nc0-2" target="Jc5_NmkDCn1TY42F2Nc0-6">
          <mxGeometry relative="1" as="geometry">
            <Array as="points">
              <mxPoint x="420" y="120" />
              <mxPoint x="110" y="120" />
            </Array>
          </mxGeometry>
        </mxCell>
        <mxCell id="Jc5_NmkDCn1TY42F2Nc0-33" value="/264" style="edgeLabel;html=1;align=center;verticalAlign=middle;resizable=0;points=[];" vertex="1" connectable="0" parent="Jc5_NmkDCn1TY42F2Nc0-27">
          <mxGeometry x="0.7451" relative="1" as="geometry">
            <mxPoint as="offset" />
          </mxGeometry>
        </mxCell>
        <mxCell id="Jc5_NmkDCn1TY42F2Nc0-28" style="edgeStyle=orthogonalEdgeStyle;rounded=0;orthogonalLoop=1;jettySize=auto;html=1;entryX=0.5;entryY=0;entryDx=0;entryDy=0;" edge="1" parent="1" source="Jc5_NmkDCn1TY42F2Nc0-2" target="Jc5_NmkDCn1TY42F2Nc0-10">
          <mxGeometry relative="1" as="geometry">
            <Array as="points">
              <mxPoint x="420" y="120" />
              <mxPoint x="270" y="120" />
            </Array>
          </mxGeometry>
        </mxCell>
        <mxCell id="Jc5_NmkDCn1TY42F2Nc0-34" value="/264" style="edgeLabel;html=1;align=center;verticalAlign=middle;resizable=0;points=[];" vertex="1" connectable="0" parent="Jc5_NmkDCn1TY42F2Nc0-28">
          <mxGeometry x="0.6343" y="2" relative="1" as="geometry">
            <mxPoint as="offset" />
          </mxGeometry>
        </mxCell>
        <mxCell id="Jc5_NmkDCn1TY42F2Nc0-29" style="edgeStyle=orthogonalEdgeStyle;rounded=0;orthogonalLoop=1;jettySize=auto;html=1;entryX=0.5;entryY=0;entryDx=0;entryDy=0;" edge="1" parent="1" source="Jc5_NmkDCn1TY42F2Nc0-2" target="Jc5_NmkDCn1TY42F2Nc0-18">
          <mxGeometry relative="1" as="geometry">
            <Array as="points">
              <mxPoint x="420" y="120" />
              <mxPoint x="590" y="120" />
            </Array>
          </mxGeometry>
        </mxCell>
        <mxCell id="Jc5_NmkDCn1TY42F2Nc0-35" value="/264" style="edgeLabel;html=1;align=center;verticalAlign=middle;resizable=0;points=[];" vertex="1" connectable="0" parent="Jc5_NmkDCn1TY42F2Nc0-29">
          <mxGeometry x="0.6649" y="1" relative="1" as="geometry">
            <mxPoint as="offset" />
          </mxGeometry>
        </mxCell>
        <mxCell id="Jc5_NmkDCn1TY42F2Nc0-30" style="edgeStyle=orthogonalEdgeStyle;rounded=0;orthogonalLoop=1;jettySize=auto;html=1;entryX=0.5;entryY=0;entryDx=0;entryDy=0;" edge="1" parent="1" source="Jc5_NmkDCn1TY42F2Nc0-2" target="Jc5_NmkDCn1TY42F2Nc0-14">
          <mxGeometry relative="1" as="geometry">
            <Array as="points">
              <mxPoint x="420" y="120" />
              <mxPoint x="750" y="120" />
            </Array>
          </mxGeometry>
        </mxCell>
        <mxCell id="Jc5_NmkDCn1TY42F2Nc0-31" value="/17424" style="edgeLabel;html=1;align=center;verticalAlign=middle;resizable=0;points=[];" vertex="1" connectable="0" parent="Jc5_NmkDCn1TY42F2Nc0-30">
          <mxGeometry x="-0.9358" y="-1" relative="1" as="geometry">
            <mxPoint as="offset" />
          </mxGeometry>
        </mxCell>
        <mxCell id="Jc5_NmkDCn1TY42F2Nc0-36" value="/264" style="edgeLabel;html=1;align=center;verticalAlign=middle;resizable=0;points=[];" vertex="1" connectable="0" parent="Jc5_NmkDCn1TY42F2Nc0-30">
          <mxGeometry x="0.7698" y="-1" relative="1" as="geometry">
            <mxPoint as="offset" />
          </mxGeometry>
        </mxCell>
        <mxCell id="Jc5_NmkDCn1TY42F2Nc0-2" value="&lt;font color=&quot;#66cc00&quot;&gt;&lt;span style=&quot;font-size: 14px;&quot;&gt;&lt;b&gt;P&lt;/b&gt;&lt;/span&gt;&lt;/font&gt;" style="text;html=1;align=center;verticalAlign=middle;resizable=0;points=[];autosize=1;strokeColor=none;fillColor=none;" vertex="1" parent="1">
          <mxGeometry x="405" y="10" width="30" height="30" as="geometry" />
        </mxCell>
        <mxCell id="Jc5_NmkDCn1TY42F2Nc0-57" style="edgeStyle=orthogonalEdgeStyle;rounded=0;orthogonalLoop=1;jettySize=auto;html=1;entryX=0.5;entryY=0;entryDx=0;entryDy=0;" edge="1" parent="1" source="Jc5_NmkDCn1TY42F2Nc0-3" target="Jc5_NmkDCn1TY42F2Nc0-55">
          <mxGeometry relative="1" as="geometry" />
        </mxCell>
        <mxCell id="Jc5_NmkDCn1TY42F2Nc0-58" value="/264" style="edgeLabel;html=1;align=center;verticalAlign=middle;resizable=0;points=[];" vertex="1" connectable="0" parent="Jc5_NmkDCn1TY42F2Nc0-57">
          <mxGeometry x="-0.2857" y="-2" relative="1" as="geometry">
            <mxPoint as="offset" />
          </mxGeometry>
        </mxCell>
        <mxCell id="Jc5_NmkDCn1TY42F2Nc0-3" value="&lt;font color=&quot;#66cc00&quot;&gt;&lt;span style=&quot;font-size: 14px;&quot;&gt;&lt;b&gt;S&lt;/b&gt;&lt;/span&gt;&lt;/font&gt;" style="text;html=1;align=center;verticalAlign=middle;resizable=0;points=[];autosize=1;strokeColor=none;fillColor=none;" vertex="1" parent="1">
          <mxGeometry x="450" y="570" width="30" height="30" as="geometry" />
        </mxCell>
        <mxCell id="Jc5_NmkDCn1TY42F2Nc0-4" value="galois_matrix_&lt;br&gt;multiply_row_col" style="rounded=0;whiteSpace=wrap;html=1;" vertex="1" parent="1">
          <mxGeometry x="20" y="240" width="120" height="120" as="geometry" />
        </mxCell>
        <mxCell id="Jc5_NmkDCn1TY42F2Nc0-5" value="left_row" style="text;html=1;strokeColor=none;fillColor=none;align=center;verticalAlign=middle;whiteSpace=wrap;rounded=0;" vertex="1" parent="1">
          <mxGeometry x="20" y="240" width="60" height="30" as="geometry" />
        </mxCell>
        <mxCell id="Jc5_NmkDCn1TY42F2Nc0-6" value="right_col" style="text;html=1;strokeColor=none;fillColor=none;align=center;verticalAlign=middle;whiteSpace=wrap;rounded=0;" vertex="1" parent="1">
          <mxGeometry x="80" y="240" width="60" height="30" as="geometry" />
        </mxCell>
        <mxCell id="Jc5_NmkDCn1TY42F2Nc0-7" value="result" style="text;html=1;strokeColor=none;fillColor=none;align=center;verticalAlign=middle;whiteSpace=wrap;rounded=0;" vertex="1" parent="1">
          <mxGeometry x="50" y="330" width="60" height="30" as="geometry" />
        </mxCell>
        <mxCell id="Jc5_NmkDCn1TY42F2Nc0-8" value="galois_matrix_&lt;br&gt;multiply_row_col" style="rounded=0;whiteSpace=wrap;html=1;" vertex="1" parent="1">
          <mxGeometry x="180" y="240" width="120" height="120" as="geometry" />
        </mxCell>
        <mxCell id="Jc5_NmkDCn1TY42F2Nc0-9" value="left_row" style="text;html=1;strokeColor=none;fillColor=none;align=center;verticalAlign=middle;whiteSpace=wrap;rounded=0;" vertex="1" parent="1">
          <mxGeometry x="180" y="240" width="60" height="30" as="geometry" />
        </mxCell>
        <mxCell id="Jc5_NmkDCn1TY42F2Nc0-10" value="right_col" style="text;html=1;strokeColor=none;fillColor=none;align=center;verticalAlign=middle;whiteSpace=wrap;rounded=0;" vertex="1" parent="1">
          <mxGeometry x="240" y="240" width="60" height="30" as="geometry" />
        </mxCell>
        <mxCell id="Jc5_NmkDCn1TY42F2Nc0-44" style="edgeStyle=orthogonalEdgeStyle;rounded=0;orthogonalLoop=1;jettySize=auto;html=1;entryX=0;entryY=0;entryDx=0;entryDy=0;" edge="1" parent="1" source="Jc5_NmkDCn1TY42F2Nc0-11" target="Jc5_NmkDCn1TY42F2Nc0-42">
          <mxGeometry relative="1" as="geometry">
            <Array as="points">
              <mxPoint x="240" y="516" />
            </Array>
          </mxGeometry>
        </mxCell>
        <mxCell id="Jc5_NmkDCn1TY42F2Nc0-48" value="/4" style="edgeLabel;html=1;align=center;verticalAlign=middle;resizable=0;points=[];" vertex="1" connectable="0" parent="Jc5_NmkDCn1TY42F2Nc0-44">
          <mxGeometry x="-0.4849" y="-2" relative="1" as="geometry">
            <mxPoint as="offset" />
          </mxGeometry>
        </mxCell>
        <mxCell id="Jc5_NmkDCn1TY42F2Nc0-11" value="result" style="text;html=1;strokeColor=none;fillColor=none;align=center;verticalAlign=middle;whiteSpace=wrap;rounded=0;" vertex="1" parent="1">
          <mxGeometry x="210" y="330" width="60" height="30" as="geometry" />
        </mxCell>
        <mxCell id="Jc5_NmkDCn1TY42F2Nc0-12" value="galois_matrix_&lt;br&gt;multiply_row_col" style="rounded=0;whiteSpace=wrap;html=1;" vertex="1" parent="1">
          <mxGeometry x="660" y="240" width="120" height="120" as="geometry" />
        </mxCell>
        <mxCell id="Jc5_NmkDCn1TY42F2Nc0-13" value="left_row" style="text;html=1;strokeColor=none;fillColor=none;align=center;verticalAlign=middle;whiteSpace=wrap;rounded=0;" vertex="1" parent="1">
          <mxGeometry x="660" y="240" width="60" height="30" as="geometry" />
        </mxCell>
        <mxCell id="Jc5_NmkDCn1TY42F2Nc0-14" value="right_col" style="text;html=1;strokeColor=none;fillColor=none;align=center;verticalAlign=middle;whiteSpace=wrap;rounded=0;" vertex="1" parent="1">
          <mxGeometry x="720" y="240" width="60" height="30" as="geometry" />
        </mxCell>
        <mxCell id="Jc5_NmkDCn1TY42F2Nc0-46" style="edgeStyle=orthogonalEdgeStyle;rounded=0;orthogonalLoop=1;jettySize=auto;html=1;entryX=1;entryY=0.5;entryDx=0;entryDy=0;" edge="1" parent="1" source="Jc5_NmkDCn1TY42F2Nc0-15" target="Jc5_NmkDCn1TY42F2Nc0-42">
          <mxGeometry relative="1" as="geometry">
            <Array as="points">
              <mxPoint x="720" y="530" />
            </Array>
          </mxGeometry>
        </mxCell>
        <mxCell id="Jc5_NmkDCn1TY42F2Nc0-50" value="/4" style="edgeLabel;html=1;align=center;verticalAlign=middle;resizable=0;points=[];" vertex="1" connectable="0" parent="Jc5_NmkDCn1TY42F2Nc0-46">
          <mxGeometry x="-0.6516" relative="1" as="geometry">
            <mxPoint as="offset" />
          </mxGeometry>
        </mxCell>
        <mxCell id="Jc5_NmkDCn1TY42F2Nc0-15" value="result" style="text;html=1;strokeColor=none;fillColor=none;align=center;verticalAlign=middle;whiteSpace=wrap;rounded=0;" vertex="1" parent="1">
          <mxGeometry x="690" y="330" width="60" height="30" as="geometry" />
        </mxCell>
        <mxCell id="Jc5_NmkDCn1TY42F2Nc0-16" value="galois_matrix_&lt;br&gt;multiply_row_col" style="rounded=0;whiteSpace=wrap;html=1;" vertex="1" parent="1">
          <mxGeometry x="500" y="240" width="120" height="120" as="geometry" />
        </mxCell>
        <mxCell id="Jc5_NmkDCn1TY42F2Nc0-17" value="left_row" style="text;html=1;strokeColor=none;fillColor=none;align=center;verticalAlign=middle;whiteSpace=wrap;rounded=0;" vertex="1" parent="1">
          <mxGeometry x="500" y="240" width="60" height="30" as="geometry" />
        </mxCell>
        <mxCell id="Jc5_NmkDCn1TY42F2Nc0-18" value="right_col" style="text;html=1;strokeColor=none;fillColor=none;align=center;verticalAlign=middle;whiteSpace=wrap;rounded=0;" vertex="1" parent="1">
          <mxGeometry x="560" y="240" width="60" height="30" as="geometry" />
        </mxCell>
        <mxCell id="Jc5_NmkDCn1TY42F2Nc0-45" style="edgeStyle=orthogonalEdgeStyle;rounded=0;orthogonalLoop=1;jettySize=auto;html=1;entryX=1;entryY=0;entryDx=0;entryDy=0;" edge="1" parent="1" source="Jc5_NmkDCn1TY42F2Nc0-19" target="Jc5_NmkDCn1TY42F2Nc0-42">
          <mxGeometry relative="1" as="geometry">
            <Array as="points">
              <mxPoint x="560" y="516" />
            </Array>
          </mxGeometry>
        </mxCell>
        <mxCell id="Jc5_NmkDCn1TY42F2Nc0-49" value="/4" style="edgeLabel;html=1;align=center;verticalAlign=middle;resizable=0;points=[];" vertex="1" connectable="0" parent="Jc5_NmkDCn1TY42F2Nc0-45">
          <mxGeometry x="-0.5013" y="1" relative="1" as="geometry">
            <mxPoint as="offset" />
          </mxGeometry>
        </mxCell>
        <mxCell id="Jc5_NmkDCn1TY42F2Nc0-19" value="result" style="text;html=1;strokeColor=none;fillColor=none;align=center;verticalAlign=middle;whiteSpace=wrap;rounded=0;" vertex="1" parent="1">
          <mxGeometry x="530" y="330" width="60" height="30" as="geometry" />
        </mxCell>
        <mxCell id="Jc5_NmkDCn1TY42F2Nc0-20" value="&lt;b&gt;&lt;font style=&quot;font-size: 24px;&quot;&gt;. . .&lt;/font&gt;&lt;/b&gt;" style="text;html=1;align=center;verticalAlign=middle;resizable=0;points=[];autosize=1;strokeColor=none;fillColor=none;" vertex="1" parent="1">
          <mxGeometry x="360" y="260" width="60" height="40" as="geometry" />
        </mxCell>
        <mxCell id="Jc5_NmkDCn1TY42F2Nc0-37" value="P[0:263]" style="text;html=1;strokeColor=none;fillColor=none;align=center;verticalAlign=middle;whiteSpace=wrap;rounded=0;" vertex="1" parent="1">
          <mxGeometry x="110" y="200" width="60" height="30" as="geometry" />
        </mxCell>
        <mxCell id="Jc5_NmkDCn1TY42F2Nc0-38" value="P[264:529]" style="text;html=1;strokeColor=none;fillColor=none;align=center;verticalAlign=middle;whiteSpace=wrap;rounded=0;" vertex="1" parent="1">
          <mxGeometry x="270" y="200" width="60" height="30" as="geometry" />
        </mxCell>
        <mxCell id="Jc5_NmkDCn1TY42F2Nc0-39" value="P[16896:17159]" style="text;html=1;strokeColor=none;fillColor=none;align=center;verticalAlign=middle;whiteSpace=wrap;rounded=0;" vertex="1" parent="1">
          <mxGeometry x="600" y="200" width="80" height="30" as="geometry" />
        </mxCell>
        <mxCell id="Jc5_NmkDCn1TY42F2Nc0-40" value="P[17160:17423]" style="text;html=1;strokeColor=none;fillColor=none;align=center;verticalAlign=middle;whiteSpace=wrap;rounded=0;" vertex="1" parent="1">
          <mxGeometry x="710" y="90" width="60" height="30" as="geometry" />
        </mxCell>
        <mxCell id="Jc5_NmkDCn1TY42F2Nc0-51" style="edgeStyle=orthogonalEdgeStyle;rounded=0;orthogonalLoop=1;jettySize=auto;html=1;entryX=0.5;entryY=0;entryDx=0;entryDy=0;" edge="1" parent="1" source="Jc5_NmkDCn1TY42F2Nc0-42" target="Jc5_NmkDCn1TY42F2Nc0-54">
          <mxGeometry relative="1" as="geometry">
            <mxPoint x="405" y="630" as="targetPoint" />
          </mxGeometry>
        </mxCell>
        <mxCell id="Jc5_NmkDCn1TY42F2Nc0-52" value="/264" style="edgeLabel;html=1;align=center;verticalAlign=middle;resizable=0;points=[];" vertex="1" connectable="0" parent="Jc5_NmkDCn1TY42F2Nc0-51">
          <mxGeometry x="-0.1802" y="1" relative="1" as="geometry">
            <mxPoint as="offset" />
          </mxGeometry>
        </mxCell>
        <mxCell id="Jc5_NmkDCn1TY42F2Nc0-42" value="&lt;font style=&quot;font-size: 32px;&quot;&gt;&lt;b style=&quot;font-size: 22px;&quot;&gt;||&lt;/b&gt;&lt;/font&gt;" style="ellipse;whiteSpace=wrap;html=1;aspect=fixed;" vertex="1" parent="1">
          <mxGeometry x="385" y="510" width="40" height="40" as="geometry" />
        </mxCell>
        <mxCell id="Jc5_NmkDCn1TY42F2Nc0-43" style="edgeStyle=orthogonalEdgeStyle;rounded=0;orthogonalLoop=1;jettySize=auto;html=1;entryX=-0.025;entryY=0.35;entryDx=0;entryDy=0;entryPerimeter=0;exitX=0.5;exitY=1;exitDx=0;exitDy=0;" edge="1" parent="1" source="Jc5_NmkDCn1TY42F2Nc0-7" target="Jc5_NmkDCn1TY42F2Nc0-42">
          <mxGeometry relative="1" as="geometry">
            <Array as="points">
              <mxPoint x="80" y="524" />
            </Array>
          </mxGeometry>
        </mxCell>
        <mxCell id="Jc5_NmkDCn1TY42F2Nc0-47" value="/4" style="edgeLabel;html=1;align=center;verticalAlign=middle;resizable=0;points=[];" vertex="1" connectable="0" parent="Jc5_NmkDCn1TY42F2Nc0-43">
          <mxGeometry x="-0.6496" y="-4" relative="1" as="geometry">
            <mxPoint as="offset" />
          </mxGeometry>
        </mxCell>
        <mxCell id="Jc5_NmkDCn1TY42F2Nc0-53" value="galois_matrix_&lt;br&gt;multiply_row_col" style="rounded=0;whiteSpace=wrap;html=1;" vertex="1" parent="1">
          <mxGeometry x="375" y="670" width="120" height="120" as="geometry" />
        </mxCell>
        <mxCell id="Jc5_NmkDCn1TY42F2Nc0-54" value="left_row" style="text;html=1;strokeColor=none;fillColor=none;align=center;verticalAlign=middle;whiteSpace=wrap;rounded=0;" vertex="1" parent="1">
          <mxGeometry x="375" y="670" width="60" height="30" as="geometry" />
        </mxCell>
        <mxCell id="Jc5_NmkDCn1TY42F2Nc0-55" value="right_col" style="text;html=1;strokeColor=none;fillColor=none;align=center;verticalAlign=middle;whiteSpace=wrap;rounded=0;" vertex="1" parent="1">
          <mxGeometry x="435" y="670" width="60" height="30" as="geometry" />
        </mxCell>
        <mxCell id="Jc5_NmkDCn1TY42F2Nc0-59" style="edgeStyle=orthogonalEdgeStyle;rounded=0;orthogonalLoop=1;jettySize=auto;html=1;" edge="1" parent="1" source="Jc5_NmkDCn1TY42F2Nc0-56">
          <mxGeometry relative="1" as="geometry">
            <mxPoint x="435" y="860" as="targetPoint" />
          </mxGeometry>
        </mxCell>
        <mxCell id="Jc5_NmkDCn1TY42F2Nc0-60" value="/4" style="edgeLabel;html=1;align=center;verticalAlign=middle;resizable=0;points=[];" vertex="1" connectable="0" parent="Jc5_NmkDCn1TY42F2Nc0-59">
          <mxGeometry x="-0.2908" y="-2" relative="1" as="geometry">
            <mxPoint as="offset" />
          </mxGeometry>
        </mxCell>
        <mxCell id="Jc5_NmkDCn1TY42F2Nc0-56" value="result" style="text;html=1;strokeColor=none;fillColor=none;align=center;verticalAlign=middle;whiteSpace=wrap;rounded=0;" vertex="1" parent="1">
          <mxGeometry x="405" y="760" width="60" height="30" as="geometry" />
        </mxCell>
        <mxCell id="Jc5_NmkDCn1TY42F2Nc0-61" value="&lt;font color=&quot;#ff0000&quot; size=&quot;1&quot;&gt;&lt;b style=&quot;font-size: 14px;&quot;&gt;result&lt;/b&gt;&lt;/font&gt;" style="text;html=1;align=center;verticalAlign=middle;resizable=0;points=[];autosize=1;strokeColor=none;fillColor=none;" vertex="1" parent="1">
          <mxGeometry x="405" y="860" width="60" height="30" as="geometry" />
        </mxCell>
      </root>
    </mxGraphModel>
  </diagram>
</mxfile>
